<svg width="142" height="106" viewBox="0 0 142 106" fill="none" xmlns="http://www.w3.org/2000/svg">
<g clip-path="url(#clip0_66_2)">
<path d="M62.125 74.8073C62.125 77.3377 61.397 79.4885 59.9409 81.2598C58.4849 83.031 56.7399 83.9167 54.7061 83.9167H25.1689C23.1351 83.9167 21.3901 83.031 19.9341 81.2598C18.478 79.4885 17.75 77.3377 17.75 74.8073C17.75 72.3229 17.9233 70.0111 18.27 67.8717C18.6167 65.7324 19.1829 63.6621 19.9688 61.6608C20.7546 59.6595 21.9333 58.0838 23.5049 56.9336C25.0765 55.7834 26.9486 55.2083 29.1211 55.2083C32.0794 58.1528 35.6849 59.625 39.9375 59.625C44.1901 59.625 47.7956 58.1528 50.7539 55.2083C52.9264 55.2083 54.7985 55.7834 56.3701 56.9336C57.9417 58.0838 59.1204 59.6595 59.9062 61.6608C60.6921 63.6621 61.2583 65.7324 61.605 67.8717C61.9517 70.0111 62.125 72.3229 62.125 74.8073ZM53.25 44.1667C53.25 47.8472 51.9557 50.9757 49.3672 53.5521C46.7786 56.1285 43.6354 57.4167 39.9375 57.4167C36.2396 57.4167 33.0964 56.1285 30.5078 53.5521C27.9193 50.9757 26.625 47.8472 26.625 44.1667C26.625 40.4861 27.9193 37.3576 30.5078 34.7812C33.0964 32.2049 36.2396 30.9167 39.9375 30.9167C43.6354 30.9167 46.7786 32.2049 49.3672 34.7812C51.9557 37.3576 53.25 40.4861 53.25 44.1667ZM124.25 72.875V77.2917C124.25 77.9358 124.042 78.4648 123.626 78.8789C123.21 79.293 122.678 79.5 122.031 79.5H73.2188C72.5716 79.5 72.04 79.293 71.624 78.8789C71.208 78.4648 71 77.9358 71 77.2917V72.875C71 72.2309 71.208 71.7018 71.624 71.2878C72.04 70.8737 72.5716 70.6667 73.2188 70.6667H122.031C122.678 70.6667 123.21 70.8737 123.626 71.2878C124.042 71.7018 124.25 72.2309 124.25 72.875ZM97.625 55.2083V59.625C97.625 60.2691 97.417 60.7982 97.001 61.2122C96.585 61.6263 96.0534 61.8333 95.4062 61.8333H73.2188C72.5716 61.8333 72.04 61.6263 71.624 61.2122C71.208 60.7982 71 60.2691 71 59.625V55.2083C71 54.5642 71.208 54.0352 71.624 53.6211C72.04 53.207 72.5716 53 73.2188 53H95.4062C96.0534 53 96.585 53.207 97.001 53.6211C97.417 54.0352 97.625 54.5642 97.625 55.2083ZM124.25 55.2083V59.625C124.25 60.2691 124.042 60.7982 123.626 61.2122C123.21 61.6263 122.678 61.8333 122.031 61.8333H108.719C108.072 61.8333 107.54 61.6263 107.124 61.2122C106.708 60.7982 106.5 60.2691 106.5 59.625V55.2083C106.5 54.5642 106.708 54.0352 107.124 53.6211C107.54 53.207 108.072 53 108.719 53H122.031C122.678 53 123.21 53.207 123.626 53.6211C124.042 54.0352 124.25 54.5642 124.25 55.2083ZM124.25 37.5417V41.9583C124.25 42.6024 124.042 43.1315 123.626 43.5456C123.21 43.9596 122.678 44.1667 122.031 44.1667H73.2188C72.5716 44.1667 72.04 43.9596 71.624 43.5456C71.208 43.1315 71 42.6024 71 41.9583V37.5417C71 36.8976 71.208 36.3685 71.624 35.9544C72.04 35.5404 72.5716 35.3333 73.2188 35.3333H122.031C122.678 35.3333 123.21 35.5404 123.626 35.9544C124.042 36.3685 124.25 36.8976 124.25 37.5417ZM133.125 94.9583V17.6667H8.875V94.9583C8.875 95.5564 9.09456 96.074 9.53369 96.5111C9.97282 96.9481 10.4928 97.1667 11.0938 97.1667H130.906C131.507 97.1667 132.027 96.9481 132.466 96.5111C132.905 96.074 133.125 95.5564 133.125 94.9583ZM142 11.0417V94.9583C142 97.9948 140.914 100.594 138.741 102.757C136.569 104.919 133.957 106 130.906 106H11.0938C8.04297 106 5.43132 104.919 3.25879 102.757C1.08626 100.594 0 97.9948 0 94.9583V11.0417C0 8.00521 1.08626 5.40582 3.25879 3.24349C5.43132 1.08116 8.04297 0 11.0938 0H130.906C133.957 0 136.569 1.08116 138.741 3.24349C140.914 5.40582 142 8.00521 142 11.0417Z" fill="#DED27C"/>
</g>
<defs>
<clipPath id="clip0_66_2">
<rect width="142" height="106" fill="white"/>
</clipPath>
</defs>
</svg>
